<?xml version="1.0" encoding="utf-8"?>
<?xml-stylesheet type="text/xsl" href="rss1.xsl"?>
<rss version="2.0" xmlns:atom="http://www.w3.org/2005/Atom" xmlns:content="http://purl.org/rss/1.0/modules/content/" xmlns:dc="http://purl.org/dc/elements/1.1/" xmlns:media="http://search.yahoo.com/mrss/">
<channel>
 <title>Getty</title>
 <link>http://www.gettyimg.com/</link>
 <atom:link href="http://www.gettyimg.com/" rel="self" type="application/rss+xml" />

 
                <item>
                <title><![CDATA[【Cinema Center】SERIES - Miss.XV.S01.2012.1080p.AMZN.WEB-DL.DDP2.0.x264-Mizz]]></title>
                <link><![CDATA[https://sharemania.us/threads/miss-xv-s01-2012-1080p-amzn-web-dl-ddp2-0-x264-mizz.223087/]]></link>
                <description><![CDATA[<article>
<blockquote class="messageText SelectQuoteContainer ugc baseHtml">
<div style="text-align: center"><img src="https://is4-ssl.mzstatic.com/image/thumb/b6IQz-MeJD1k3nn3DDFC1Q/100000x100000-999.png" class="bbCodeImage LbImage" alt="[​IMG]" data-url="https://is4-ssl.mzstatic.com/image/thumb/b6IQz-MeJD1k3nn3DDFC1Q/100000x100000-999.png" style=""><br>
<br>
Valentina (Paulina Goto) and Natalia (Natasha Dupeyrón) are two great friends who are about to turn XV, both will find love and let themselves be carried away by music.<br>
<br>
​</div>
<div class="ToggleTriggerAnchor bbCodeSpoilerContainer">
<button type="button" class="button bbCodeSpoilerButton ToggleTrigger Tooltip JsOnly" data-target="> .SpoilerTarget"><span>Spoiler: <span class="SpoilerTitle">MediaInfo</span></span></button>
<div class="SpoilerTarget bbCodeSpoilerText">General<br>
Unique ID : 199109304163531013638677615935134431778 (0x95CB0E9EB9D4AFFDFF582D6C782CFA22)<br>
Format : Matroska<br>
Format version : Version 4<br>
File size : 3.02 GiB<br>
Duration : 42 min 48 s<br>
Overall bit rate mode : Constant<br>
Overall bit rate : 10.1 Mb/s<br>
Encoded date : UTC 2023-06-12 17:33:37<br>
Writing application : mkvmerge v68.0.0 ('The Curtain') 64-bit<br>
Writing library : libebml v1.4.2 + libmatroska v1.6.4<br>
<br>
Video<br>
ID : 1<br>
Format : AVC<br>
Format/Info : Advanced Video Codec<br>
Format profile : High@L4<br>
Format settings : CABAC / 4 Ref Frames<br>
Format settings, CABAC : Yes<br>
Format settings, Reference frames : 4 frames<br>
Codec ID : V_MPEG4/ISO/AVC<br>
Duration : 42 min 48 s<br>
Bit rate mode : Constant<br>
Bit rate : 10 000 kb/s<br>
Width : 1 920 pixels<br>
Height : 1 080 pixels<br>
Display aspect ratio : 16:9<br>
Frame rate mode : Constant<br>
Frame rate : 30.000 FPS<br>
Color space : YUV<br>
Chroma subsampling : 4:2:0<br>
Bit depth : 8 bits<br>
Scan type : Progressive<br>
Bits/(Pixel*Frame) : 0.161<br>
Stream size : 2.95 GiB (98%)<br>
Default : Yes<br>
Forced : No<br>
Color range : Limited<br>
Color primaries : BT.709<br>
Transfer characteristics : BT.709<br>
Matrix coefficients : BT.709<br>
<br>
Audio<br>
ID : 2<br>
Format : E-AC-3<br>
Format/Info : Enhanced AC-3<br>
Commercial name : Dolby Digital Plus<br>
Codec ID : A_EAC3<br>
Duration : 42 min 48 s<br>
Bit rate mode : Constant<br>
Bit rate : 224 kb/s<br>
Channel(s) : 2 channels<br>
Channel layout : L R<br>
Sampling rate : 48.0 kHz<br>
Frame rate : 31.250 FPS (1536 SPF)<br>
Compression mode : Lossy<br>
Stream size : 68.6 MiB (2%)<br>
Language : Spanish<br>
Service kind : Complete Main<br>
Default : Yes<br>
Forced : No</div>
</div><br>
<div style="text-align: center"><img src="https://i.imgur.com/DtOoPmt.png" class="bbCodeImage LbImage" alt="[​IMG]" data-url="https://i.imgur.com/DtOoPmt.png" style=""><br>
<img src="https://i.imgur.com/xHz0p0M.png" class="bbCodeImage LbImage" alt="[​IMG]" data-url="https://i.imgur.com/xHz0p0M.png" style=""><br>
<br>
<div class="bbCodeBlock bbCodeVfcHH HiddenContent">
<div class="attribution type">Hidden Content:</div>
<blockquote>You must reply before you can see the hidden data contained here.</blockquote>
</div><br>
More From Miss XV<br>
<a href="https://sharemania.us/threads/eme-15-wonderland-live-zona-preferente-1080p-amzn-web-dl-aac-2-0-x264-mizz.223088/" class="internalLink">EME-15.Wonderland.Live.Zona.Preferente.1080p.AMZN.WEB-DL.AAC.2.0.x264-Mizz</a>​</div>
<div class="messageTextEndMarker">&nbsp;</div>
</blockquote>
</article>]]></description>
                <author><![CDATA[Mizz]]></author>
                </item>

                
                <item>
                <title><![CDATA[【Cinema Center】MOVIE - EME-15.Wonderland.Live.Zona.Preferente.1080p.AMZN.WEB-DL.AAC.2.0.x264-Mizz]]></title>
                <link><![CDATA[https://sharemania.us/threads/eme-15-wonderland-live-zona-preferente-1080p-amzn-web-dl-aac-2-0-x264-mizz.223088/]]></link>
                <description><![CDATA[<article>
<blockquote class="messageText SelectQuoteContainer ugc baseHtml">
<div style="text-align: center"><img src="https://musicart.xboxlive.com/7/865f5200-0000-0000-0000-000000000002/504/image.jpg" class="bbCodeImage LbImage" alt="[​IMG]" data-url="https://musicart.xboxlive.com/7/865f5200-0000-0000-0000-000000000002/504/image.jpg" style=""><br>
<br>
EME-15 were Mexico’s Monkees, as in the ‘60s sitcom based on a Beatles-like band. Six actors formed a Latin Pop band for the Latin America show, Miss XV, in 2012. This is their first live album from a concert in Mexico City’s Auditorio Nacional.<br>
<br>
​</div>
<div class="ToggleTriggerAnchor bbCodeSpoilerContainer">
<button type="button" class="button bbCodeSpoilerButton ToggleTrigger Tooltip JsOnly" data-target="> .SpoilerTarget"><span>Spoiler: <span class="SpoilerTitle">MediaInfo</span></span></button>
<div class="SpoilerTarget bbCodeSpoilerText">General<br>
Unique ID : 73357293951738586916999339782919829776 (0x373019D4FB37A2F19953A4E8A8EA3910)<br>
Format : Matroska<br>
Format version : Version 4<br>
File size : 8.17 GiB<br>
Duration : 1 h 26 min<br>
Overall bit rate : 13.5 Mb/s<br>
Encoded date : UTC 2023-06-15 18:20:49<br>
Writing application : mkvmerge v51.0.0 ('I Wish') 64-bit<br>
Writing library : libebml v1.4.0 + libmatroska v1.6.2<br>
<br>
Video<br>
ID : 1<br>
Format : AVC<br>
Format/Info : Advanced Video Codec<br>
Format profile : High@L4<br>
Format settings : CABAC / 4 Ref Frames<br>
Format settings, CABAC : Yes<br>
Format settings, Reference frames : 4 frames<br>
Codec ID : V_MPEG4/ISO/AVC<br>
Duration : 1 h 26 min<br>
Bit rate : 13.4 Mb/s<br>
Width : 1 920 pixels<br>
Height : 1 080 pixels<br>
Display aspect ratio : 16:9<br>
Frame rate mode : Constant<br>
Frame rate : 25.000 FPS<br>
Color space : YUV<br>
Chroma subsampling : 4:2:0<br>
Bit depth : 8 bits<br>
Scan type : Progressive<br>
Bits/(Pixel*Frame) : 0.258<br>
Stream size : 8.09 GiB (99%)<br>
Default : Yes<br>
Forced : No<br>
Color range : Limited<br>
Color primaries : BT.709<br>
Transfer characteristics : BT.709<br>
Matrix coefficients : BT.709<br>
<br>
Audio<br>
ID : 2<br>
Format : AAC LC<br>
Format/Info : Advanced Audio Codec Low Complexity<br>
Codec ID : A_AAC-2<br>
Duration : 1 h 26 min<br>
Bit rate : 128 kb/s<br>
Channel(s) : 2 channels<br>
Channel layout : L R<br>
Sampling rate : 48.0 kHz<br>
Frame rate : 46.875 FPS (1024 SPF)<br>
Compression mode : Lossy<br>
Stream size : 79.4 MiB (1%)<br>
Language : Spanish<br>
Default : Yes<br>
Forced : No</div>
</div><br>
<div style="text-align: center"><img src="https://i.imgur.com/1uwiJ66.png" class="bbCodeImage LbImage" alt="[​IMG]" data-url="https://i.imgur.com/1uwiJ66.png" style=""><br>
<img src="https://i.imgur.com/sQ0SGhb.png" class="bbCodeImage LbImage" alt="[​IMG]" data-url="https://i.imgur.com/sQ0SGhb.png" style=""><br>
<br>
<div class="bbCodeBlock bbCodeVfcHH HiddenContent">
<div class="attribution type">Hidden Content:</div>
<blockquote>You must reply before you can see the hidden data contained here.</blockquote>
</div><br>
More From Miss XV<br>
<a href="https://sharemania.us/threads/miss-xv-s01-2012-1080p-amzn-web-dl-ddp2-0-x264-mizz.223087/#post-4630714" class="internalLink">Miss.XV.S01.2012.1080p.AMZN.WEB-DL.DDP2.0.x264-Mizz</a>​</div>
<div class="messageTextEndMarker">&nbsp;</div>
</blockquote>
</article>]]></description>
                <author><![CDATA[Mizz]]></author>
                </item>

                </channel></rss>